<mxfile host="app.diagrams.net" modified="2023-12-05T16:48:33.248Z" agent="Mozilla/5.0 (Macintosh; Intel Mac OS X 10_15_7) AppleWebKit/537.36 (KHTML, like Gecko) Chrome/119.0.0.0 Safari/537.36" etag="QuOxdeiQWZE1Za1G8U39" version="22.1.5" type="github">
  <diagram name="Page-1" id="jSAtBwfTj6bwIICP6kDo">
    <mxGraphModel dx="1434" dy="795" grid="1" gridSize="10" guides="1" tooltips="1" connect="1" arrows="1" fold="1" page="1" pageScale="1" pageWidth="827" pageHeight="1169" math="0" shadow="0">
      <root>
        <mxCell id="0" />
        <mxCell id="1" parent="0" />
        <mxCell id="TjEKkkAD85zMLCdMafLD-82" value="Enrollment" style="swimlane;childLayout=stackLayout;horizontal=1;startSize=50;horizontalStack=0;rounded=1;fontSize=14;fontStyle=0;strokeWidth=2;resizeParent=0;resizeLast=1;shadow=0;dashed=0;align=center;arcSize=4;whiteSpace=wrap;html=1;" vertex="1" parent="1">
          <mxGeometry x="380" y="290" width="160" height="120" as="geometry" />
        </mxCell>
        <mxCell id="TjEKkkAD85zMLCdMafLD-83" value="date (dateTime)&lt;br&gt;price (float)" style="align=left;strokeColor=none;fillColor=none;spacingLeft=4;fontSize=12;verticalAlign=top;resizable=0;rotatable=0;part=1;html=1;" vertex="1" parent="TjEKkkAD85zMLCdMafLD-82">
          <mxGeometry y="50" width="160" height="70" as="geometry" />
        </mxCell>
        <mxCell id="TjEKkkAD85zMLCdMafLD-70" value="Student" style="swimlane;childLayout=stackLayout;horizontal=1;startSize=50;horizontalStack=0;rounded=1;fontSize=14;fontStyle=0;strokeWidth=2;resizeParent=0;resizeLast=1;shadow=0;dashed=0;align=center;arcSize=4;whiteSpace=wrap;html=1;" vertex="1" parent="1">
          <mxGeometry x="30" y="40" width="160" height="150" as="geometry" />
        </mxCell>
        <mxCell id="TjEKkkAD85zMLCdMafLD-71" value="firstName (string)&lt;br&gt;lastName (string)&lt;br&gt;email (string)&lt;br&gt;dateRegistered (dateTime)" style="align=left;strokeColor=none;fillColor=none;spacingLeft=4;fontSize=12;verticalAlign=top;resizable=0;rotatable=0;part=1;html=1;" vertex="1" parent="TjEKkkAD85zMLCdMafLD-70">
          <mxGeometry y="50" width="160" height="100" as="geometry" />
        </mxCell>
        <mxCell id="TjEKkkAD85zMLCdMafLD-72" value="Course" style="swimlane;childLayout=stackLayout;horizontal=1;startSize=50;horizontalStack=0;rounded=1;fontSize=14;fontStyle=0;strokeWidth=2;resizeParent=0;resizeLast=1;shadow=0;dashed=0;align=center;arcSize=4;whiteSpace=wrap;html=1;" vertex="1" parent="1">
          <mxGeometry x="640" y="44" width="160" height="120" as="geometry" />
        </mxCell>
        <mxCell id="TjEKkkAD85zMLCdMafLD-73" value="title (string)&lt;br&gt;price (float)&lt;br&gt;instructor (string)&lt;br&gt;tags (string)" style="align=left;strokeColor=none;fillColor=none;spacingLeft=4;fontSize=12;verticalAlign=top;resizable=0;rotatable=0;part=1;html=1;" vertex="1" parent="TjEKkkAD85zMLCdMafLD-72">
          <mxGeometry y="50" width="160" height="70" as="geometry" />
        </mxCell>
        <mxCell id="TjEKkkAD85zMLCdMafLD-85" value="" style="edgeStyle=entityRelationEdgeStyle;fontSize=12;html=1;endArrow=ERoneToMany;rounded=0;exitX=1;exitY=0;exitDx=0;exitDy=0;entryX=0;entryY=0;entryDx=0;entryDy=0;" edge="1" parent="1" source="TjEKkkAD85zMLCdMafLD-71" target="TjEKkkAD85zMLCdMafLD-83">
          <mxGeometry width="100" height="100" relative="1" as="geometry">
            <mxPoint x="254" y="195" as="sourcePoint" />
            <mxPoint x="354" y="95" as="targetPoint" />
          </mxGeometry>
        </mxCell>
        <mxCell id="TjEKkkAD85zMLCdMafLD-86" value="" style="edgeStyle=entityRelationEdgeStyle;fontSize=12;html=1;endArrow=ERoneToMany;rounded=0;exitX=0.006;exitY=0.433;exitDx=0;exitDy=0;exitPerimeter=0;entryX=0.994;entryY=0.383;entryDx=0;entryDy=0;entryPerimeter=0;" edge="1" parent="1" source="TjEKkkAD85zMLCdMafLD-72" target="TjEKkkAD85zMLCdMafLD-82">
          <mxGeometry width="100" height="100" relative="1" as="geometry">
            <mxPoint x="284" y="170" as="sourcePoint" />
            <mxPoint x="384" y="70" as="targetPoint" />
          </mxGeometry>
        </mxCell>
        <mxCell id="TjEKkkAD85zMLCdMafLD-88" value="1 to many" style="text;html=1;align=center;verticalAlign=middle;resizable=0;points=[];autosize=1;strokeColor=none;fillColor=none;" vertex="1" parent="1">
          <mxGeometry x="200" y="48" width="80" height="30" as="geometry" />
        </mxCell>
        <mxCell id="TjEKkkAD85zMLCdMafLD-89" value="many to 1" style="text;html=1;align=center;verticalAlign=middle;resizable=0;points=[];autosize=1;strokeColor=none;fillColor=none;" vertex="1" parent="1">
          <mxGeometry x="510" y="45" width="80" height="30" as="geometry" />
        </mxCell>
      </root>
    </mxGraphModel>
  </diagram>
</mxfile>
